<svg xmlns="http://www.w3.org/2000/svg" width="800" height="450" viewBox="0 0 800 450">
  <defs>
    <linearGradient id="v" x1="0" y1="0" x2="1" y2="1">
      <stop offset="0" stop-color="#0f172a"></stop>
      <stop offset="1" stop-color="#1f2937"></stop>
    </linearGradient>
  </defs>
  <rect width="800" height="450" fill="url(#v)"></rect>
  <g transform="translate(0,0)" opacity="0.15" fill="#fff">
    <rect x="80" y="80" width="140" height="80" rx="8"></rect>
    <rect x="260" y="140" width="180" height="100" rx="8"></rect>
    <rect x="480" y="90" width="220" height="140" rx="8"></rect>
    <rect x="120" y="240" width="240" height="120" rx="8"></rect>
    <rect x="420" y="260" width="260" height="110" rx="8"></rect>
  </g>
  <g transform="translate(640,60)">
    <circle cx="0" cy="0" r="36" fill="#60a5fa"></circle>
    <path d="M0-20a20 20 0 0 1 20 20c0 11-20 34-20 34S-20 11-20 0a20 20 0 0 1 20-20z" fill="#3b82f6"></path>
    <circle cx="0" cy="0" r="8" fill="#fff"></circle>
  </g>
  <text x="40" y="410" fill="#d1d5db" font-family="system-ui,Segoe UI,Roboto" font-size="18">Venue image</text>
</svg>
